<svg width="912" height="912" viewBox="0 0 912 912" fill="none" xmlns="http://www.w3.org/2000/svg">
<circle cx="111.5" cy="239.5" r="80" stroke="white" stroke-width="3"/>
<circle cx="168" cy="219" r="166.5" stroke="white" stroke-width="3"/>
<circle cx="228" cy="228" r="226.5" stroke="white" stroke-width="3"/>
<circle cx="672.5" cy="111.5" r="80" transform="rotate(90 672.5 111.5)" stroke="white" stroke-width="3"/>
<circle cx="693" cy="168" r="166.5" transform="rotate(90 693 168)" stroke="white" stroke-width="3"/>
<circle cx="684" cy="228" r="226.5" transform="rotate(90 684 228)" stroke="white" stroke-width="3"/>
<circle cx="344.5" cy="672.5" r="80" transform="rotate(-180 344.5 672.5)" stroke="white" stroke-width="3"/>
<circle cx="288" cy="693" r="166.5" transform="rotate(-180 288 693)" stroke="white" stroke-width="3"/>
<circle cx="228" cy="684" r="226.5" transform="rotate(-180 228 684)" stroke="white" stroke-width="3"/>
<circle cx="695.5" cy="800.5" r="80" transform="rotate(-90 695.5 800.5)" stroke="white" stroke-width="3"/>
<circle cx="675" cy="744" r="166.5" transform="rotate(-90 675 744)" stroke="white" stroke-width="3"/>
<circle cx="684" cy="684" r="226.5" transform="rotate(-90 684 684)" stroke="white" stroke-width="3"/>
</svg>
