<svg width="41" height="71" viewBox="0 0 41 71" fill="none" xmlns="http://www.w3.org/2000/svg">
<g clip-path="url(#clip0_140_863)">
<path d="M41 11.5625C41 11.1875 41 10.8125 41 10.4375C39.2915 10.3125 37.583 10.2 35.8746 10.1C29.7497 9.74149 23.6249 9.54364 17.5 9.50645L16.8653 9.50259L16.4142 9.97449C15.9242 10.487 15.4358 11.0011 14.9489 11.5166C12.6024 14.0011 10.26 16.4894 7.9216 18.9815L7.5186 19.4054L7.51667 20C7.55001 30.25 7.63333 40.5 7.76665 50.75L7.76048 51.2242L8.10334 51.5969C10.9757 54.56 13.8539 57.5176 16.7381 60.4696L17.0306 60.7901L17.5 60.798C23.6249 60.6943 29.7497 60.5728 35.8746 60.4333C37.583 60.3945 39.2915 60.3542 41 60.3125C41 59.9375 41 59.5625 41 59.1875C39.2915 59.1458 37.583 59.1056 35.8746 59.0667C29.7497 58.9273 23.6249 58.8057 17.5 58.702L18.2619 59.0304C15.4794 55.9824 12.691 52.94 9.89666 49.9032L10.2334 50.75C10.3667 40.5 10.45 30.25 10.4833 20L10.0784 21.0185C12.4329 18.5416 14.7835 16.0609 17.1299 13.5764C17.6168 13.0609 18.1021 12.5439 18.5858 12.0255L17.5 12.4935C23.6249 12.4563 29.7497 12.2585 35.8746 11.9C37.583 11.8 39.2915 11.6875 41 11.5625Z" fill="#917F5C"/>
<path d="M5.85947e-08 68.4375C1.95316e-08 68.8125 -1.95316e-08 69.1875 -5.85947e-08 69.5625C1.53979 69.6882 3.11267 69.5914 4.65059 69.281C6.36466 68.9364 8.03264 68.3284 9.59021 67.5146C12.8948 65.7897 15.6733 63.1765 17.8303 60.1985C18.3153 59.5296 18.7712 58.8398 19.1973 58.135C20.919 55.2855 22.2108 52.2113 23.1317 49.0476C24.3638 44.8034 24.9341 40.3937 24.8958 36C24.8546 31.6064 24.2044 27.2182 22.9028 23.02C21.6894 19.1176 19.9077 15.367 17.4626 12.0633C15.3038 9.14959 12.6027 6.57971 9.39939 4.81342C7.88872 3.98029 6.27097 3.33343 4.59437 2.92824C3.09006 2.56367 1.53987 2.39525 4.26548e-06 2.4375C4.27245e-06 2.8125 4.27942e-06 3.1875 4.2864e-06 3.5625C1.43978 3.60374 2.86725 3.83855 4.23968 4.24808C5.76926 4.70364 7.22949 5.37455 8.58674 6.21053C11.4635 7.98238 13.8633 10.4691 15.7714 13.2676C17.9317 16.4396 19.4853 20.0157 20.5196 23.7229C21.6291 27.7108 22.1427 31.8633 22.1042 36C22.0633 40.1367 21.4697 44.2676 20.2907 48.2096C19.4103 51.148 18.2013 53.9829 16.6301 56.5828C16.2413 57.2259 15.8324 57.8564 15.4037 58.4705C13.4937 61.2048 11.1714 63.6482 8.39591 65.4614C7.08558 66.3168 5.67556 67.0265 4.18345 67.5427C2.84463 68.0063 1.43986 68.3128 5.85947e-08 68.4375Z" fill="#917F5C"/>
<path d="M29.3281 20.8493C29.6882 20.7449 30.0484 20.6404 30.4086 20.536C30.4016 20.0632 30.3761 19.5929 30.3318 19.1253C30.1547 17.2553 29.677 15.4326 28.9113 13.7336C27.8319 11.3382 26.504 9.04204 24.9189 6.93161C22.5753 3.80917 19.6425 1.07843 16.2384 -0.803289C15.832 -1.02803 15.4194 -1.24032 15.0013 -1.43928C14.8103 -1.11655 14.6194 -0.79382 14.4284 -0.471089C14.786 -0.211056 15.1363 0.0572723 15.4794 0.333185C18.3476 2.64346 20.7056 5.4567 22.6785 8.49985C24.0098 10.5565 25.1663 12.7256 26.1762 14.9661C26.8917 16.5547 27.6972 18.108 28.6171 19.6729C28.847 20.0641 29.0838 20.4557 29.3281 20.8493Z" fill="#917F5C"/>
<path d="M16.2135 72.0159C16.4045 72.3386 16.5955 72.6614 16.7865 72.9841C17.2117 72.8777 17.6307 72.7526 18.0438 72.604C19.6914 72.0301 21.2785 70.9567 22.4214 69.5994C23.3939 68.463 24.2035 67.2893 24.9886 66.1172C27.5209 62.3223 29.2122 58.0563 30.1604 53.6986C30.2498 53.2876 30.3323 52.8768 30.4086 52.464C30.0484 52.3596 29.6882 52.2551 29.3281 52.1507C29.1743 52.5315 29.0177 52.9092 28.8576 53.2859C27.1567 57.2806 25.1039 61.0562 22.6088 64.4513C21.7887 65.5647 20.9869 66.6636 20.1461 67.6441C19.1565 68.8083 18.1963 69.8899 17.0646 71.0936C16.7852 71.3939 16.5008 71.7006 16.2135 72.0159Z" fill="#917F5C"/>
</g>
<defs>
<clipPath id="clip0_140_863">
<rect width="41" height="71" fill="white"/>
</clipPath>
</defs>
</svg>
