<svg width="1000" height="6" viewBox="0 0 1000 6" fill="none" xmlns="http://www.w3.org/2000/svg">
<path d="M560.14 1.13948C582.213 1.53844 599.588 -0.224985 626.491 0.0242484C653.393 0.273489 657.423 1.20833 688.233 0.997881C719.041 0.787482 749.867 1.42708 763.586 1.0428C777.303 0.658407 778.751 1.82142 798.231 1.56331C817.711 1.30522 829.517 1.45607 846.553 1.83382C863.591 2.21157 915.932 2.5342 934.965 2.07015C953.997 1.60612 975.705 2.4114 988.759 2.60237C992.826 2.66186 996.027 2.74326 998.48 2.82796C999.519 2.86388 999.999 2.93936 1000 3.01351C999.999 3.10583 999.255 3.19616 997.92 3.20784C991.436 3.26448 981.745 3.41401 970.297 3.74886C948.951 4.37323 946.618 3.68388 917.794 4.00472C888.97 4.32555 871.652 4.96636 837.737 4.55159C803.823 4.13686 796.033 5.87311 748.159 4.88948C700.286 3.90592 695.247 5.72037 647.541 5.96175C599.833 6.20311 539.612 5.20194 510.853 5.28499C482.095 5.36804 443.47 5.57923 402.701 5.33968C361.932 5.10014 311.604 5.70556 266.602 5.27815C221.601 4.85075 157.977 4.31079 128.584 3.94905C99.1918 3.58732 92.0273 3.50537 63.736 3.7264C47.4741 3.85344 25.0718 3.73368 6.14912 3.26644C-3.37412 3.03128 -1.21662 2.70435 8.36885 2.54769C22.3859 2.31861 33.8925 2.47152 41.1149 2.06233C55.5465 1.24456 61.6803 0.930119 79.8991 1.40608C98.1171 1.882 106.702 0.801157 117.322 0.925616C127.943 1.05017 127.768 1.68766 181.769 1.19612C235.77 0.704574 265.374 0.579754 285.824 0.461748C306.274 0.343742 348.975 0.896953 382.303 0.6971C415.632 0.497257 483.388 0.680534 510.701 0.35335C538.013 0.0261894 538.069 0.740531 560.14 1.13948Z" fill="white"/>
</svg>
