<svg width="75" height="73" viewBox="0 0 75 73" fill="none" xmlns="http://www.w3.org/2000/svg">
<path d="M23.0926 62.6137C22.9554 62.8227 22.8181 63.0316 22.6808 63.2405C22.9677 63.5287 23.266 63.8054 23.5748 64.0698C24.8096 65.1273 26.2125 65.9855 27.7148 66.6035C31.5634 68.1922 35.765 68.9075 39.8867 68.7082C41.3948 68.6371 42.8934 68.447 44.3616 68.1396C44.753 68.0577 45.1423 67.9674 45.529 67.8689C45.4844 67.623 45.4397 67.377 45.395 67.131C45.0078 67.1731 44.6204 67.2086 44.2331 67.2376C42.7805 67.3463 41.3288 67.363 39.8867 67.2918C35.9448 67.0989 32.0829 66.24 28.4761 64.754C27.0685 64.1744 25.6538 63.6115 24.1951 63.0425C23.8304 62.9002 23.4631 62.7574 23.0926 62.6137Z" fill="#C8B169"/>
<path d="M70.0676 45.6026C69.8271 45.5342 69.5867 45.4658 69.3462 45.3974C69.2378 45.4741 69.1371 45.5519 69.0441 45.6315C68.672 45.9495 68.4229 46.2925 68.2924 46.6759C67.8352 48.0176 67.4557 49.3859 67.1246 50.8372C67.1009 50.9408 67.0775 51.0449 67.0543 51.1494C67.2759 51.265 67.4975 51.3807 67.7192 51.4964C67.7928 51.4154 67.8653 51.3334 67.9365 51.2505C68.9348 50.0904 69.6984 48.7528 70.1857 47.3206C70.325 46.9115 70.3296 46.4564 70.1949 45.9716C70.1612 45.8504 70.1188 45.7273 70.0676 45.6026Z" fill="#C8B169"/>
<path d="M9.52384 29.0652C9.76576 29.1283 10.0077 29.1913 10.2496 29.2544C10.4767 28.7136 10.7096 28.1827 10.9498 27.6554C11.9097 25.5502 12.9723 23.5407 14.1385 21.595C18.2109 14.7739 24.9096 9.54046 32.6972 7.30639C33.2535 7.14553 33.8118 7.00012 34.3784 6.86896C34.3337 6.62299 34.2891 6.37701 34.2444 6.13104C33.6538 6.21008 33.0689 6.30616 32.4835 6.42069C24.2809 7.98436 16.7558 13.2728 12.4232 20.5665C11.178 22.6414 10.2869 24.9304 9.80776 27.2869C9.68745 27.8769 9.59323 28.4686 9.52384 29.0652Z" fill="#C8B169"/>
<path d="M14.5836 55.5558C14.7851 55.4078 14.9865 55.2598 15.188 55.1118C15.1278 54.889 15.0636 54.6712 14.9954 54.4581C14.7223 53.6055 14.382 52.8277 13.9568 52.0994C12.4699 49.5502 11.1981 46.8745 10.1549 44.0333C10.0804 43.8302 10.0072 43.6266 9.9351 43.4218C9.69061 43.4739 9.44611 43.5261 9.20161 43.5782C9.22051 43.7999 9.24261 44.021 9.26811 44.2423C9.62241 47.3386 10.6404 50.3893 12.2295 53.1075C12.6829 53.8845 13.2846 54.5747 14.0135 55.1481C14.1957 55.2914 14.3859 55.4275 14.5836 55.5558Z" fill="#C8B169"/>
<path d="M20.2579 51.5917C20.3584 51.3628 20.4589 51.1339 20.5594 50.905C20.3958 50.7422 20.2314 50.5856 20.0657 50.4352C19.4029 49.8334 18.7193 49.3299 17.9869 48.9117C15.4246 47.4475 12.9854 45.7662 10.6613 43.8272C10.4953 43.6886 10.3301 43.5489 10.1652 43.4076C9.97955 43.575 9.79389 43.7424 9.60823 43.9098C9.73544 44.0924 9.86511 44.2728 9.99783 44.4516C11.8528 46.956 14.2598 49.089 16.9951 50.6485C17.7762 51.0947 18.6424 51.3915 19.5604 51.5236C19.7899 51.5566 20.0226 51.5794 20.2579 51.5917Z" fill="#C8B169"/>
<path d="M53.3009 49.5858C52.8295 50.0572 52.3581 50.5286 51.8867 51C52.2652 51.3549 52.6436 51.7098 53.0221 52.0646C59.8342 58.4525 66.6463 64.8404 73.4585 71.2282C73.8369 71.5831 74.2154 71.938 74.5938 72.2929C74.2389 71.9144 73.8841 71.536 73.5292 71.1575C67.1413 64.3454 60.7534 57.5333 54.3656 50.7211C54.0107 50.3427 53.6558 49.9642 53.3009 49.5858Z" fill="#C8B169"/>
<path d="M22 39C22 37.3333 22 35.6667 22 34C21.6333 34.0417 21.2667 34.0833 20.9 34.125C14.3 34.875 7.7 35.625 1.1 36.375C0.733335 36.4167 0.366665 36.4583 -2.18557e-07 36.5C0.366665 36.5417 0.733335 36.5833 1.1 36.625C7.7 37.375 14.3 38.125 20.9 38.875C21.2667 38.9167 21.6333 38.9583 22 39Z" fill="#C8B169"/>
<path d="M39.5117 12C39.7617 12 40.0117 12 40.2617 12C40.3451 11.8 40.4201 11.6 40.4867 11.4C40.7534 10.6 40.8867 9.8 40.8867 9C40.8867 6.2 40.7052 3.4 40.3423 0.6C40.3163 0.399999 40.2895 0.2 40.2617 2.73197e-08C40.0117 3.82476e-08 39.7617 4.91755e-08 39.5117 6.01033e-08C39.4839 0.2 39.4571 0.399999 39.4312 0.6C39.0682 3.4 38.8867 6.2 38.8867 9C38.8867 9.8 39.0201 10.6 39.2867 11.4C39.3534 11.6 39.4284 11.8 39.5117 12Z" fill="#C8B169"/>
<mask id="path-12-inside-1_143_865" fill="white">
<circle cx="39.8867" cy="37" r="19"/>
</mask>
<path d="M59.2617 37C59.0117 37 58.7617 37 58.5117 37C58.429 38.9543 58.0499 40.8762 57.3909 42.6881C54.807 50.0044 47.4733 55.1004 39.8867 55C30.3044 55.2318 21.6347 46.6232 21.8173 37C21.5346 27.3843 30.1486 18.5873 39.8867 18.7222C47.5996 18.5322 55.096 23.832 57.5282 31.2673C58.1533 33.1063 58.4846 35.0458 58.5117 37C58.7617 37 59.0117 37 59.2617 37C59.2903 34.9689 59.0003 32.9324 58.3948 30.9859C56.0565 23.1207 48.2194 17.2307 39.8867 17.2778C29.3837 16.9205 19.7467 26.3745 19.9562 37C19.6466 47.6179 29.2279 57.2604 39.8867 57C39.8867 57 39.8867 57 39.8867 57C48.3458 57.1367 56.3455 51.0429 58.5322 43.0587C59.1038 41.085 59.3459 39.031 59.2617 37ZM58.5117 37H59.2617H58.5117Z" fill="#C8B169" mask="url(#path-12-inside-1_143_865)"/>
<circle cx="39.8867" cy="37" r="6" fill="#C8B169"/>
</svg>
