<svg width="29" height="28" viewBox="0 0 29 28" fill="none" xmlns="http://www.w3.org/2000/svg">
<path d="M28 19.4898C28.0666 18.9222 28.1053 18.3541 28.1149 17.7804C28.2421 12.6084 25.7561 7.27364 21.5666 3.93006C18.0532 1.06239 13.401 -0.341289 9 0.0705937C8.20451 0.140628 7.41734 0.265052 6.64679 0.442671C6.08806 0.571433 5.53806 0.728119 5 0.911601C5.566 0.858498 6.13082 0.828147 6.69291 0.819861C7.46813 0.808416 8.23815 0.838947 9 0.909021C13.2159 1.29065 17.1404 2.91848 20.3091 5.48526C24.0542 8.50914 26.761 12.8419 27.7364 17.8138C27.8453 18.3658 27.9333 18.9222 28 19.4898Z" fill="#C8B169"/>
<circle cx="10" cy="17.4898" r="9" stroke="#C8B169" stroke-width="2"/>
<circle cx="10" cy="17.4798" r="2.5" fill="#C8B169"/>
</svg>
